<svg width="31" height="32" viewBox="0 0 31 32" fill="none" xmlns="http://www.w3.org/2000/svg">
<path d="M8.24414 0.0764854C9.3786 0.0671145 10.5 0.318688 11.5218 0.81177C12.1901 1.1289 12.7876 1.57769 13.2783 2.13126C13.7691 2.68483 14.143 3.33177 14.3778 4.03332C14.9157 5.61606 15.0258 7.20918 14.3653 8.79607C13.2915 11.3758 10.5622 13.1974 7.80173 13.1579C6.22315 13.1351 4.82942 12.5639 3.57487 11.6334C2.50985 10.827 1.59153 9.8433 0.860122 8.72545C0.766297 8.57807 0.714587 8.40784 0.710578 8.23318C0.698116 6.98693 0.710581 5.74068 0.700195 4.49444C0.704212 4.27868 0.776978 4.06984 0.907903 3.89831C2.09184 2.13487 3.74727 1.02987 5.76204 0.431668C6.5689 0.198569 7.40429 0.0790245 8.24414 0.0764854ZM9.30138 7.61006C9.61917 7.61006 9.93489 7.61006 10.2527 7.61006C10.5403 7.61188 10.8179 7.50434 11.0292 7.30921C11.2406 7.11407 11.3699 6.84593 11.3909 6.55905C11.4325 5.89647 11.0357 5.35019 10.3898 5.31281C9.68229 5.26503 8.9724 5.26503 8.26492 5.31281C7.61895 5.35642 7.21599 5.9027 7.25753 6.55905C7.27505 6.84686 7.40214 7.11703 7.61267 7.31404C7.82321 7.51106 8.1012 7.61996 8.38954 7.61836C8.69279 7.61629 8.99813 7.61006 9.30138 7.61006ZM2.48648 6.48843V8.16256C2.48129 8.2511 2.48129 8.33988 2.48648 8.42843C2.50221 8.61336 2.5854 8.78604 2.72023 8.91359C2.85505 9.04114 3.0321 9.11464 3.21762 9.12009C3.40356 9.11958 3.58275 9.05037 3.72077 8.92577C3.85879 8.80117 3.9459 8.62996 3.96536 8.44504C3.97057 8.3565 3.97057 8.26772 3.96536 8.17917C3.96536 7.06309 3.96536 5.9477 3.96536 4.833C3.96798 4.69348 3.95474 4.55411 3.92589 4.41758C3.88665 4.26274 3.79694 4.12539 3.67094 4.02722C3.54493 3.92904 3.38981 3.87565 3.23008 3.87546C3.07647 3.87242 2.92591 3.91854 2.80036 4.0071C2.67481 4.09565 2.58084 4.22201 2.53217 4.36773C2.49304 4.50267 2.47415 4.64267 2.4761 4.78315C2.4844 5.34812 2.48648 5.91723 2.48648 6.48843Z" fill="white"/>
<path d="M30.8345 6.38873C30.8345 6.9994 30.8345 7.60798 30.8345 8.21864C30.8327 8.39341 30.7831 8.56437 30.6911 8.71299C29.8942 9.94192 28.869 11.0066 27.6711 11.8494C26.4718 12.7075 25.0331 13.1668 23.5585 13.1621C20.4428 13.1289 17.4622 10.7381 16.8474 7.72014C16.4133 5.59737 17.0364 2.55652 19.5663 1.05687C20.6201 0.42889 21.8229 0.0946655 23.0496 0.0889488C25.7373 0.0619468 28.0346 0.99248 29.9039 2.95948C29.9579 3.01348 30.0078 3.07164 30.0556 3.12979C30.8324 4.03748 30.8428 4.06448 30.8428 5.24842L30.8345 6.38873ZM22.2063 7.60798C22.5241 7.60798 22.8294 7.60798 23.1576 7.60798C23.4457 7.60627 23.7222 7.49458 23.9307 7.29575C24.1392 7.09692 24.2638 6.82597 24.2792 6.53828C24.3145 5.89854 23.924 5.35227 23.2967 5.30657C22.5769 5.25568 21.8544 5.25568 21.1345 5.30657C20.5114 5.35019 20.1126 5.88608 20.1417 6.5279C20.1549 6.81563 20.2775 7.08746 20.4844 7.28783C20.6913 7.48819 20.967 7.60197 21.255 7.6059C21.5728 7.61837 21.8885 7.60798 22.2063 7.60798ZM27.5568 6.47805C27.5568 6.89347 27.5568 7.29018 27.5568 7.69522C27.5568 7.93616 27.5423 8.17918 27.5568 8.41804C27.5686 8.61014 27.6539 8.79031 27.7951 8.92108C27.9363 9.05184 28.1225 9.12312 28.315 9.12009C28.5005 9.11194 28.6766 9.03594 28.8099 8.90653C28.9431 8.77712 29.0242 8.60329 29.0378 8.41804C29.0419 8.34194 29.0419 8.26566 29.0378 8.18956V4.806C29.044 4.71749 29.044 4.62865 29.0378 4.54013C29.0167 4.36195 28.9327 4.19714 28.801 4.07531C28.6693 3.95348 28.4984 3.88262 28.3191 3.87547C28.1333 3.87277 27.9532 3.93935 27.8138 4.06222C27.6744 4.1851 27.5858 4.35547 27.5651 4.54013C27.5578 4.64109 27.5578 4.74243 27.5651 4.84339C27.5548 5.38758 27.5568 5.93385 27.5568 6.47805Z" fill="white"/>
<path d="M12.8449 21.7716C12.8449 24.4884 12.8324 27.2052 12.8449 29.9221C12.8449 30.5639 12.579 30.9606 12.014 31.1891C11.4674 31.417 10.8802 31.5317 10.2879 31.5264C9.69564 31.521 9.11062 31.3957 8.56816 31.1579C8.3229 31.0661 8.11431 30.8967 7.9741 30.6755C7.83389 30.4543 7.76971 30.1934 7.79132 29.9324C7.80378 24.9059 7.80378 19.8787 7.79132 14.8508C7.79443 14.8003 7.79443 14.7496 7.79132 14.6991C7.76639 14.4914 7.86195 14.4083 8.07381 14.4083C8.79709 14.4115 9.51858 14.3363 10.2257 14.184C11.018 14.0028 11.7751 13.6927 12.4668 13.2659C12.5384 13.213 12.6157 13.1684 12.6974 13.133C12.7214 13.1338 12.7449 13.141 12.7653 13.1538C12.7857 13.1665 12.8024 13.1844 12.8137 13.2057C12.8282 13.2928 12.8324 13.3814 12.8262 13.4695L12.8449 21.7716Z" fill="white"/>
<path d="M18.6899 21.7384C18.6899 18.9966 18.6899 16.2549 18.6899 13.5131C18.6987 13.3805 18.7168 13.2486 18.7439 13.1185C18.854 13.1725 18.9703 13.2203 19.0763 13.2846C20.1765 13.9521 21.4275 14.3307 22.7132 14.3855L23.056 14.398C23.7227 14.425 23.7227 14.425 23.7227 15.0751V29.8514C23.7227 30.6158 23.5025 30.9668 22.7818 31.2327C21.7732 31.6115 20.6626 31.6182 19.6495 31.2514C19.4841 31.1881 19.3266 31.1058 19.1801 31.0063C19.0218 30.9109 18.8922 30.7744 18.8052 30.6113C18.7181 30.4482 18.6769 30.2646 18.6858 30.0799C18.6858 27.7827 18.6858 25.4847 18.6858 23.1861V21.7321L18.6899 21.7384Z" fill="white"/>
</svg>
