<svg width="37" height="27" viewBox="0 0 37 27" fill="none" xmlns="http://www.w3.org/2000/svg">
<path d="M26.8943 0.990835C28.5415 1.00389 30.0363 1.52828 31.4354 2.34642C33.3263 3.45178 34.8646 4.91833 35.8982 6.87446C36.3531 7.71292 36.612 8.64359 36.6554 9.59652C36.707 11.0174 36.2293 12.4069 35.315 13.4957C34.3603 14.7259 33.0327 15.6137 31.5312 16.0263C30.1299 16.3984 28.7656 16.2069 27.4535 15.6542C25.0557 14.6676 23.0091 12.9841 21.5786 10.8215C20.9106 9.81628 20.4732 8.71527 20.4906 7.49242C20.4834 6.18846 20.8669 4.91223 21.5917 3.82821C22.0769 3.08209 22.7164 2.44861 23.4671 1.97043C24.2177 1.49225 25.0621 1.18048 25.9434 1.05611C26.259 1.01042 26.5788 1.01042 26.8943 0.990835ZM27.7342 6.87882C27.7125 6.43058 27.595 6.04545 27.2533 5.79087C26.4939 5.22296 25.7302 4.66158 24.9447 4.12848C24.7267 3.98551 24.4698 3.91332 24.2093 3.92177C23.5217 3.96746 23.0821 4.38089 22.8537 5.00972C22.6731 5.51235 22.8384 6.06068 23.3607 6.46322C24.0787 7.01807 24.8185 7.55117 25.5714 8.04945C25.7842 8.19518 26.0354 8.2746 26.2933 8.2777C26.5512 8.2808 26.8043 8.20743 27.0205 8.06686C27.2283 7.94316 27.4023 7.76992 27.5268 7.56261C27.6514 7.3553 27.7226 7.12038 27.7342 6.87882ZM30.9089 13.2259C30.9089 14.0615 31.2287 14.3291 31.8075 14.1942C31.9686 14.159 32.1239 14.1012 32.2688 14.0223C33.4344 13.3695 34.335 12.3296 34.8146 11.0827C34.9169 10.7565 34.9561 10.4138 34.9299 10.073C34.9306 10.0102 34.9176 9.9479 34.8919 9.89052C34.8662 9.83314 34.8284 9.78202 34.781 9.74066C34.7337 9.6993 34.6779 9.6687 34.6176 9.65095C34.5573 9.6332 34.4938 9.62873 34.4316 9.63785C34.1061 9.65682 33.7872 9.7373 33.4916 9.87503C32.5534 10.4166 31.7963 11.2236 31.3157 12.1945C31.1559 12.5283 31.02 12.8729 30.9089 13.2259Z" fill="white"/>
<path d="M10.6621 0.942964C13.5234 0.929909 15.9974 2.96437 16.7546 5.51235C17.1076 6.59299 17.1498 7.75106 16.8765 8.85453C16.5733 9.88787 16.0583 10.8468 15.3642 11.6701C13.9806 13.4185 12.1723 14.7833 10.1116 15.6346C7.74858 16.6225 5.54222 16.3179 3.51211 14.7382C2.49118 13.9803 1.70766 12.9469 1.25352 11.7594C0.559413 9.88155 0.87927 8.08426 1.90629 6.42188C3.41917 3.90003 5.83959 2.0526 8.67116 1.25847C9.30435 1.07569 9.99846 1.04088 10.6621 0.942964ZM14.7289 5.39268C14.73 5.12266 14.6562 4.85762 14.5156 4.6271C14.375 4.39658 14.1731 4.20965 13.9325 4.08714C13.7042 3.95422 13.441 3.89368 13.1776 3.91349C12.9142 3.9333 12.663 4.03254 12.4572 4.19811C11.9067 4.58542 11.3693 4.99013 10.821 5.38832C10.6773 5.49277 10.5272 5.59504 10.3858 5.70601C10.0926 5.92001 9.89517 6.24065 9.83615 6.59883C9.77713 6.95701 9.86121 7.32403 10.0703 7.6208C10.1626 7.77554 10.2853 7.91004 10.4309 8.01622C10.5765 8.12241 10.742 8.19809 10.9176 8.23873C11.0932 8.27937 11.2751 8.28413 11.4526 8.25272C11.63 8.22132 11.7993 8.1544 11.9502 8.05598C12.751 7.54682 13.5125 6.96803 14.2741 6.411C14.427 6.29106 14.5484 6.13562 14.6276 5.95817C14.7069 5.78071 14.7416 5.5866 14.7289 5.39268ZM3.33368 9.60304C2.80276 9.60304 2.58735 9.78364 2.58735 10.2362C2.58139 10.4693 2.61449 10.7017 2.68527 10.9238C3.1456 12.2038 4.04034 13.2818 5.21366 13.9701C5.41491 14.0846 5.6367 14.1586 5.86643 14.1877C6.32554 14.2573 6.59318 14.0462 6.61494 13.5893C6.62991 13.3292 6.59595 13.0687 6.51485 12.8212C6.1395 11.7903 5.48206 10.8855 4.61747 10.2101C4.23016 9.91637 3.81021 9.60957 3.33368 9.61174V9.60304Z" fill="white"/>
<path d="M14.768 20.1649C14.768 21.9056 14.768 23.6463 14.768 25.387C14.768 26.1442 14.4003 26.5185 13.654 26.6273C13.5452 26.6446 13.4355 26.6555 13.3254 26.6599C12.6901 26.6599 12.0569 26.6599 11.4215 26.6599C11.2698 26.658 11.1188 26.6398 10.9711 26.6055C10.4554 26.4902 10.1007 26.2117 10.0246 25.6525C9.99197 25.4494 9.97235 25.2444 9.96582 25.0389C9.96582 22.5562 9.96583 20.0735 9.95495 17.5908C9.94219 17.4834 9.96989 17.375 10.0326 17.287C10.0954 17.1989 10.1887 17.1373 10.2944 17.1142C11.7964 16.5612 13.1909 15.7513 14.4155 14.7208C14.5017 14.6584 14.5918 14.6017 14.6853 14.551C14.7299 14.6583 14.7599 14.771 14.7746 14.8861C14.7746 16.653 14.7746 18.4176 14.7746 20.1823L14.768 20.1649Z" fill="white"/>
<path d="M22.7579 20.13V15.045C22.7525 14.9493 22.7525 14.8534 22.7579 14.7577C22.7739 14.6836 22.7957 14.6108 22.8232 14.5402C22.8986 14.566 22.9715 14.5988 23.0408 14.6381C23.7893 15.1516 24.5095 15.7086 25.2863 16.1721C25.9218 16.5286 26.5812 16.8405 27.2599 17.1055C27.4775 17.2013 27.5863 17.3014 27.5863 17.5407C27.5863 20.1518 27.5863 22.7759 27.5863 25.3935C27.5863 26.0463 27.1924 26.5424 26.5549 26.5881C25.6494 26.6512 24.7405 26.6512 23.835 26.5881C23.1518 26.5402 22.7775 26.0354 22.7753 25.3348C22.7753 23.5941 22.7753 21.8534 22.7753 20.1257L22.7579 20.13Z" fill="white"/>
</svg>
