<svg width="48" height="26" viewBox="0 0 48 26" fill="none" xmlns="http://www.w3.org/2000/svg">
<path d="M8.06686 10.617C7.47629 9.29833 6.88571 7.97965 6.29514 6.66098C6.24253 6.55687 6.21477 6.44198 6.214 6.32525C6.21324 6.20851 6.2395 6.09306 6.29075 5.98788C7.2395 3.79243 8.82916 2.20843 10.9577 1.15906C12.0368 0.592388 13.2217 0.255636 14.4368 0.170287C15.2648 0.116475 16.0938 0.244207 16.8654 0.544489C17.637 0.844771 18.3325 1.31029 18.9029 1.90825C19.8595 2.83211 20.5569 3.98958 20.926 5.26638C21.4274 7.08146 21.0634 8.80844 20.1689 10.4294C18.7538 13.0019 16.5667 14.5892 13.6796 15.2119C12.5596 15.4647 11.3926 15.4056 10.3065 15.0409C10.2065 15.0122 10.1144 14.9612 10.0373 14.8917C9.96014 14.8222 9.89993 14.736 9.86123 14.6398C9.27265 13.2986 8.66819 11.9597 8.06686 10.617ZM14.6079 7.65395L16.8341 6.55843C17.5488 6.2023 17.8161 5.51565 17.4899 4.85212C17.1143 4.08343 16.4419 3.844 15.691 4.21635C14.327 4.89688 12.9545 5.56921 11.5995 6.26975C11.3149 6.4222 11.0662 6.63354 10.8701 6.88953C10.6927 7.12021 10.6037 7.40615 10.6191 7.69573C10.6346 7.98531 10.7534 8.25945 10.9542 8.46865C11.1387 8.67494 11.3883 8.81232 11.662 8.85822C11.9358 8.90412 12.2175 8.85582 12.4608 8.72124C13.1753 8.37001 13.8911 8.01098 14.6079 7.65395Z" fill="white"/>
<path d="M39.4761 10.617C40.0667 9.29833 40.6573 7.97965 41.2478 6.66098C41.3004 6.55687 41.3282 6.44198 41.329 6.32525C41.3297 6.20851 41.3035 6.09306 41.2522 5.98788C40.3035 3.79243 38.7138 2.20843 36.5853 1.15906C35.5062 0.592388 34.3213 0.255636 33.1061 0.170287C32.2782 0.116475 31.4492 0.244207 30.6776 0.544489C29.906 0.844771 29.2105 1.31029 28.6401 1.90825C27.6834 2.83211 26.9861 3.98958 26.6169 5.26638C26.1156 7.08146 26.4796 8.80844 27.3741 10.4294C28.7891 13.0019 30.9762 14.5892 33.8634 15.2119C34.9834 15.4647 36.1504 15.4056 37.2364 15.0409C37.3365 15.0122 37.4285 14.9612 37.5057 14.8917C37.5828 14.8222 37.643 14.736 37.6817 14.6398C38.2703 13.2986 38.8748 11.9597 39.4761 10.617ZM32.9351 7.65395L30.7089 6.55843C29.9941 6.2023 29.7269 5.51565 30.053 4.85212C30.4287 4.08343 31.101 3.844 31.852 4.21635C33.2159 4.89688 34.5884 5.56921 35.9434 6.26975C36.228 6.4222 36.4768 6.63354 36.6729 6.88953C36.8503 7.12021 36.9393 7.40615 36.9238 7.69573C36.9084 7.98531 36.7896 8.25945 36.5888 8.46865C36.4043 8.67494 36.1547 8.81232 35.8809 8.85822C35.6072 8.90412 35.3255 8.85582 35.0822 8.72124C34.3677 8.37001 33.6518 8.01098 32.9351 7.65395Z" fill="white"/>
<path d="M21.7743 9.19865C21.7913 9.39286 21.8106 9.51153 21.8103 9.6294C21.8227 12.8926 21.8352 16.1559 21.8477 19.4191C21.8543 20.8576 21.863 22.2951 21.8417 23.7197C21.831 24.7743 21.1409 25.4389 20.0833 25.4393C19.5995 25.4374 19.108 25.4508 18.6206 25.4409C18.413 25.4466 18.2064 25.4111 18.013 25.3367C17.8195 25.2623 17.6428 25.1504 17.4933 25.0075C17.3437 24.8645 17.2241 24.6933 17.1415 24.5038C17.0588 24.3142 17.0148 24.1101 17.0118 23.9032C16.9762 22.5834 16.9915 21.2696 16.981 19.9411C16.9736 18.4093 16.974 16.8788 16.9567 15.3466C16.9428 15.2439 16.9608 15.1394 17.0085 15.0471C17.0562 14.9549 17.1312 14.8793 17.2232 14.8308C19.3103 13.6155 20.8877 11.6894 21.6634 9.40929C21.6965 9.33712 21.7335 9.26681 21.7743 9.19865Z" fill="white"/>
<path d="M25.7686 9.19865C25.7517 9.39286 25.7324 9.51153 25.7327 9.6294C25.7202 12.8926 25.7078 16.1559 25.6953 19.4191C25.6886 20.8576 25.68 22.2951 25.7013 23.7197C25.712 24.7743 26.402 25.4389 27.4596 25.4393C27.9435 25.4374 28.4349 25.4508 28.9224 25.4409C29.13 25.4466 29.3365 25.4111 29.53 25.3367C29.7235 25.2623 29.9001 25.1504 30.0497 25.0075C30.1993 24.8645 30.3188 24.6933 30.4015 24.5038C30.4841 24.3142 30.5282 24.1101 30.5312 23.9032C30.5668 22.5834 30.5514 21.2696 30.562 19.9411C30.5694 18.4093 30.569 16.8788 30.5862 15.3466C30.6002 15.2439 30.5821 15.1394 30.5344 15.0471C30.4868 14.9549 30.4118 14.8793 30.3197 14.8308C28.2327 13.6155 26.6553 11.6894 25.8796 9.40929C25.8465 9.33712 25.8094 9.26681 25.7686 9.19865Z" fill="white"/>
<path d="M4.97861 6.14293L9.41193 16.042C8.68227 16.6486 7.79977 17.0439 6.86132 17.1843C5.84353 17.356 4.79933 17.2568 3.83451 16.8966C3.69209 16.8513 3.5615 16.7754 3.45193 16.6742C3.34236 16.573 3.25647 16.449 3.20032 16.311C2.35342 14.3984 1.49818 12.4888 0.634598 10.5821C0.570682 10.461 0.534121 10.3273 0.527472 10.1905C0.520823 10.0536 0.544244 9.91685 0.5961 9.78972C1.36737 7.90438 2.71834 6.67713 4.70921 6.17229C4.79827 6.15652 4.88827 6.14671 4.97861 6.14293Z" fill="white"/>
<path d="M42.5644 6.14293L38.131 16.042C38.8607 16.6486 39.7432 17.0439 40.6817 17.1843C41.6994 17.356 42.7436 17.2568 43.7085 16.8966C43.8509 16.8513 43.9815 16.7754 44.091 16.6742C44.2006 16.573 44.2865 16.449 44.3427 16.311C45.1895 14.3984 46.0448 12.4888 46.9084 10.5821C46.9723 10.461 47.0088 10.3273 47.0155 10.1905C47.0221 10.0536 46.9987 9.91685 46.9469 9.78972C46.1756 7.90438 44.8246 6.67713 42.8338 6.17229C42.7447 6.15652 42.6547 6.14671 42.5644 6.14293Z" fill="white"/>
</svg>
