<svg width="34" height="37" viewBox="0 0 34 37" fill="none" xmlns="http://www.w3.org/2000/svg">
<path d="M1.00171 21.0025V18.8817C0.495073 18.4343 0.446565 17.8307 0.462734 17.1839C0.575919 14.1387 1.17956 11.2202 2.6833 8.53073C4.06223 6.01315 6.17794 3.97737 8.74673 2.69636C11.6329 1.24114 14.7104 0.783011 17.9092 0.952787C20.2551 1.03939 22.5575 1.612 24.6706 2.63438C27.3063 3.92852 29.4729 6.01221 30.8688 8.59541C32.2152 11.0922 32.9477 13.8736 33.0058 16.7096C33.0058 16.8956 33.0058 17.0815 33.0274 17.2648C33.0881 17.5527 33.0763 17.8512 32.993 18.1334C32.9097 18.4157 32.7576 18.6728 32.5504 18.8817V20.9864C32.5995 21.0574 32.6545 21.1241 32.7148 21.1858C33.5098 21.8945 33.6688 22.8027 33.4586 23.7836C33.1157 25.2501 32.5991 26.6704 31.9198 28.0146C30.77 30.4968 29.3221 32.8298 27.608 34.9619C27.122 35.5165 26.5518 35.9912 25.9184 36.3686C25.5157 36.5932 25.0585 36.7014 24.5979 36.6812C24.2599 36.6858 23.9255 36.6119 23.6209 36.4654C23.3163 36.3188 23.0499 36.1037 22.8425 35.8367C22.6351 35.5698 22.4925 35.2585 22.4258 34.9271C22.3591 34.5957 22.3702 34.2534 22.4582 33.9271C22.5595 33.4991 22.722 33.088 22.9405 32.7063C24.9105 29.203 26.902 25.6997 28.8692 22.1964C29.0699 21.8087 29.3597 21.4741 29.7148 21.2202C30.0699 20.9663 30.4802 20.8003 30.9119 20.7357V18.8493C30.5427 18.4047 30.4727 17.793 30.4592 17.157C30.445 14.8578 29.9251 12.59 28.9366 10.5141C27.3817 7.27762 24.8835 5.12173 21.4638 4.12464C18.3146 3.16917 14.9489 3.19737 11.8162 4.20548C7.53404 5.58256 4.92272 8.61427 3.6723 12.8802C3.27857 14.3331 3.05786 15.8275 3.01477 17.3321C2.97165 18.1702 2.97973 18.1702 2.59706 18.8466V20.6253C2.65896 20.6713 2.72585 20.7101 2.79647 20.7411C3.20186 20.8365 3.58117 21.0203 3.90727 21.2793C4.23338 21.5383 4.49822 21.8662 4.68288 22.2395C6.46148 25.4059 8.25896 28.5643 10.0457 31.7281C10.3402 32.1988 10.5996 32.6906 10.8218 33.1995C11.0086 33.6445 11.1004 34.1236 11.0912 34.6062C10.9754 36.2096 9.45547 37.0828 7.87898 36.4926C7.0105 36.1477 6.26652 35.5484 5.74465 34.7733C4.8823 33.574 4.06306 32.3479 3.27347 31.0867C2.02519 29.1351 1.03938 27.0275 0.341463 24.8185C0.266006 24.5759 0.204025 24.328 0.139348 24.0828C-0.146307 22.9078 -0.0492887 21.8299 1.00171 21.0025Z" fill="white"/>
<path d="M14.6486 31.561C14.6558 31.9144 14.576 32.2642 14.4162 32.5795C14.2564 32.8948 14.0216 33.1661 13.7323 33.3692C13.0775 33.8274 12.5034 33.7384 12.0857 33.0513C11.4417 31.9733 10.8353 30.8954 10.2182 29.8174L5.63695 21.7328C5.54533 21.5712 5.4537 21.4095 5.36747 21.2451C4.9848 20.4779 5.18601 19.9138 5.97111 19.5527C6.31676 19.3817 6.70621 19.3198 7.08786 19.3751C7.4695 19.4304 7.82531 19.6005 8.10814 19.8626C8.45434 20.1693 8.74434 20.5341 8.9651 20.9406C10.6898 23.948 12.393 26.9663 14.1015 29.9818C14.3899 30.4965 14.6998 31.0247 14.6486 31.561Z" fill="white"/>
<path d="M18.8497 31.4451C18.9679 31.0183 19.1229 30.6026 19.3132 30.2028C21.0595 27.0767 22.8192 23.9588 24.5925 20.8489C24.8619 20.3062 25.2983 19.8641 25.8375 19.5877C26.1474 19.4276 26.4946 19.3535 26.8429 19.3729C27.1912 19.3923 27.528 19.5046 27.8182 19.6982C28.3841 20.0566 28.5297 20.5228 28.2117 21.1211C27.7158 22.0616 27.1822 22.9806 26.6567 23.9049C25.0021 26.8171 23.3448 29.7285 21.6847 32.6389C21.3991 33.1375 21.1457 33.7492 20.4262 33.6252C20.0927 33.5673 19.7826 33.4156 19.5321 33.188C19.2816 32.9604 19.101 32.6662 19.0114 32.3398C18.94 32.045 18.886 31.7463 18.8497 31.4451Z" fill="white"/>
<path fill-rule="evenodd" clip-rule="evenodd" d="M17.0483 4.99508H17.1176L17.1414 4.99545C17.1335 4.99528 17.1255 4.99511 17.1176 4.99508C17.0978 4.995 17.0781 4.99503 17.0584 4.99506C17.055 4.99507 17.0517 4.99507 17.0483 4.99508Z" fill="white"/>
<path fill-rule="evenodd" clip-rule="evenodd" d="M17.0483 4.99508H17.1176L17.1414 4.99545C17.1335 4.99528 17.1255 4.99511 17.1176 4.99508C17.0978 4.995 17.0781 4.99503 17.0584 4.99506C17.055 4.99507 17.0517 4.99507 17.0483 4.99508Z" fill="white"/>
<path fill-rule="evenodd" clip-rule="evenodd" d="M8.45105 8.15189C8.46736 8.1862 8.48861 8.21751 8.51391 8.24488C8.53308 8.26561 8.55457 8.28407 8.57799 8.29987C8.58936 8.30753 8.60118 8.31457 8.61341 8.32093C8.68412 8.3577 8.76465 8.36986 8.84274 8.35556C8.86182 8.35269 8.88045 8.34726 8.89814 8.3394C11.4729 7.41896 14.1596 6.94676 16.8491 6.92279C19.5386 6.94678 22.2251 7.41898 24.7999 8.33939L24.8527 8.35556C24.931 8.37067 25.012 8.3591 25.0832 8.32262C25.0963 8.31592 25.109 8.30844 25.1211 8.30024C25.1439 8.28486 25.1648 8.26695 25.1835 8.24689C25.2091 8.2195 25.2306 8.1881 25.2471 8.15364C25.2822 8.0805 25.2928 7.99764 25.2772 7.91776C25.2617 7.83789 25.221 7.76542 25.1613 7.71149C24.6275 7.221 24.0408 6.79426 23.4124 6.43952C21.8347 5.56485 20.0786 5.07942 18.2845 5.02202C17.9053 5.00322 17.5338 4.99754 17.1647 4.99582L17.1176 4.99508H17.0094C16.4792 4.9816 15.9385 4.99508 15.4109 5.02203C13.6168 5.07981 11.8608 5.56522 10.283 6.43952C9.65545 6.79427 9.06958 7.22102 8.53676 7.71149C8.47745 7.76533 8.43697 7.83749 8.4215 7.91698C8.40603 7.99648 8.41641 8.07897 8.45105 8.15189Z" fill="white"/>
</svg>
