<svg width="38" height="30" viewBox="0 0 38 30" fill="none" xmlns="http://www.w3.org/2000/svg">
<path d="M2.33492 29.3127C2.05994 29.3185 1.78662 29.2689 1.53119 29.1669C1.27575 29.065 1.04343 28.9127 0.848024 28.7191C0.654017 28.5276 0.501255 28.2985 0.399166 28.0457C0.297077 27.793 0.247823 27.522 0.254418 27.2495V18.2215C0.225987 17.1207 0.373844 16.0223 0.692408 14.9682C1.04789 13.9777 1.57242 13.0564 2.2427 12.2451L3.5567 10.5392C3.83596 9.20179 4.18609 7.88015 4.60561 6.5799C4.90976 5.56631 5.28038 4.57385 5.71503 3.60899C6.11275 2.75552 6.73409 2.02564 7.51313 1.49678C8.32846 0.941159 9.27125 0.601124 10.2535 0.508402C11.4734 0.364322 14.3098 0.291319 18.7628 0.289398C23.3734 0.289398 26.2166 0.362401 27.2923 0.508402C28.2739 0.629178 29.2151 0.972129 30.0443 1.51119C30.824 2.02912 31.4421 2.75612 31.828 3.60899C32.2625 4.57422 32.6341 5.5666 32.9402 6.5799C33.3575 7.88059 33.7067 9.20215 33.9863 10.5392L35.3032 12.2451C35.9727 13.0564 36.4962 13.9778 36.8506 14.9682C37.1691 16.0223 37.317 17.1207 37.2886 18.2215V27.2495C37.2954 27.5236 37.2445 27.7961 37.1393 28.0492C37.034 28.3024 36.8768 28.5306 36.6777 28.7191C36.4866 28.9137 36.2575 29.0668 36.0047 29.1689C35.7518 29.2711 35.4806 29.32 35.2081 29.3127H33.361C33.0883 29.319 32.8172 29.27 32.564 29.1685C32.3108 29.0671 32.0809 28.9153 31.888 28.7225C31.6951 28.5296 31.5434 28.2996 31.4419 28.0465C31.3405 27.7933 31.2914 27.5222 31.2977 27.2495V24.6359C27.4883 24.8761 23.31 24.9961 18.7628 24.9961C14.2157 24.9961 10.0441 24.8761 6.24811 24.6359V27.2495C6.2524 27.5219 6.20188 27.7923 6.09953 28.0448C5.99718 28.2972 5.8451 28.5265 5.65234 28.719C5.45959 28.9115 5.23009 29.0633 4.9775 29.1652C4.72491 29.2672 4.45439 29.3174 4.18202 29.3127H2.33492ZM6.96851 9.8505C9.58691 9.6315 13.5193 9.522 18.7657 9.522C24.0121 9.522 27.9503 9.6315 30.5802 9.8505C30.7358 9.8505 30.8252 9.8505 30.8453 9.83609C30.8658 9.7636 30.8607 9.68628 30.8309 9.61709C30.4467 7.53083 29.9357 5.90849 29.2979 4.7501C29.0564 4.31038 28.7097 3.93733 28.2888 3.66429C27.868 3.39125 27.386 3.22672 26.886 3.18539C25.7065 3.03939 22.9997 2.96639 18.7657 2.96639C14.5317 2.96639 11.8307 3.03939 10.6627 3.18539C10.163 3.22617 9.68117 3.39051 9.26068 3.66363C8.84018 3.93675 8.49415 4.3101 8.2537 4.7501C7.60631 5.90273 7.0953 7.52506 6.7207 9.61709C6.689 9.72948 6.68324 9.8044 6.70341 9.83609C6.72358 9.86779 6.81002 9.86203 6.96851 9.8505ZM4.45001 19.1609C4.66852 19.3761 4.92804 19.5451 5.21318 19.658C5.49831 19.7708 5.80323 19.8252 6.1098 19.8179C6.41394 19.8264 6.71657 19.7724 6.99906 19.6595C7.28155 19.5465 7.5379 19.3768 7.75229 19.1609C7.97168 18.9448 8.14445 18.686 8.25993 18.4006C8.37541 18.1151 8.43115 17.809 8.42371 17.5011C8.43223 17.1957 8.37693 16.8918 8.26132 16.609C8.14571 16.3262 7.97233 16.0706 7.75229 15.8586C7.5379 15.6427 7.28155 15.4731 6.99906 15.3601C6.71657 15.2471 6.41394 15.1931 6.1098 15.2016C5.80323 15.1943 5.49831 15.2487 5.21318 15.3616C4.92804 15.4744 4.66852 15.6435 4.45001 15.8586C4.23413 16.073 4.06446 16.3293 3.95146 16.6118C3.83847 16.8943 3.78453 17.197 3.793 17.5011C3.78531 17.8075 3.83926 18.1123 3.95162 18.3974C4.06399 18.6825 4.23249 18.9422 4.44712 19.1609H4.45001ZM29.782 19.1609C29.9999 19.3761 30.2589 19.5452 30.5436 19.6581C30.8283 19.771 31.1328 19.8253 31.4389 19.8179C31.7435 19.8263 32.0465 19.7723 32.3295 19.6593C32.6124 19.5463 32.8693 19.3767 33.0843 19.1609C33.3032 18.9444 33.4756 18.6855 33.591 18.4002C33.7064 18.1148 33.7625 17.8089 33.7557 17.5011C33.7636 17.1958 33.7079 16.8921 33.5923 16.6094C33.4768 16.3267 33.3038 16.071 33.0843 15.8586C32.8693 15.6428 32.6124 15.4732 32.3295 15.3602C32.0465 15.2472 31.7435 15.1932 31.4389 15.2016C31.1328 15.1942 30.8283 15.2486 30.5436 15.3614C30.2589 15.4743 29.9999 15.6434 29.782 15.8586C29.5661 16.073 29.3965 16.3293 29.2835 16.6118C29.1705 16.8943 29.1166 17.197 29.125 17.5011C29.1173 17.8075 29.1713 18.1123 29.2836 18.3974C29.396 18.6825 29.5645 18.9422 29.7791 19.1609H29.782ZM14.622 18.988H22.9296C23.1252 18.9961 23.3203 18.9642 23.5031 18.8943C23.6859 18.8245 23.8526 18.7181 23.9929 18.5817C24.1287 18.4374 24.2346 18.2676 24.3043 18.0821C24.3741 17.8966 24.4063 17.6991 24.3992 17.5011C24.4101 17.3053 24.3795 17.1094 24.3095 16.9261C24.2394 16.7429 24.1315 16.5766 23.9929 16.4379C23.8542 16.2992 23.6878 16.1913 23.5046 16.1213C23.3214 16.0513 23.1255 16.0207 22.9296 16.0315H14.6191C14.423 16.0202 14.2268 16.0505 14.0433 16.1204C13.8597 16.1902 13.693 16.298 13.5539 16.4367C13.4149 16.5755 13.3068 16.742 13.2366 16.9254C13.1664 17.1088 13.1358 17.305 13.1466 17.5011C13.1395 17.6991 13.1718 17.8966 13.2415 18.0821C13.3113 18.2676 13.4171 18.4374 13.5529 18.5817C13.6936 18.7185 13.8608 18.825 14.0441 18.8949C14.2274 18.9648 14.4231 18.9964 14.6191 18.988H14.622Z" fill="white"/>
</svg>
