<svg width="25" height="36" viewBox="0 0 25 36" fill="none" xmlns="http://www.w3.org/2000/svg">
<path fill-rule="evenodd" clip-rule="evenodd" d="M18.4033 22.7836C18.4033 19.7705 16.0373 17.3101 13.0617 17.1594L12.772 17.1518C9.66193 17.1518 7.14079 19.6735 7.14077 22.7836L7.14787 23.0732C7.29869 26.0487 9.75911 28.4148 12.772 28.4148L13.0617 28.4077C15.9413 28.2619 18.2502 25.9528 18.3962 23.0732L18.4033 22.7836Z" fill="white"/>
<path fill-rule="evenodd" clip-rule="evenodd" d="M25.0039 3.95816C25.0039 2.07426 23.5242 0.53568 21.6638 0.441284L21.4821 0.43692H4.0603C2.1156 0.436971 0.539114 2.01346 0.539062 3.95816V31.6442C0.539062 33.589 2.11557 35.1659 4.0603 35.166H21.4821C23.4269 35.166 25.0039 33.589 25.0039 31.6442V3.95816ZM4.68491 22.7836C4.68493 18.3171 8.3056 14.6965 12.772 14.6964L12.981 14.6986C17.2815 14.8076 20.748 18.2741 20.857 22.5746L20.8592 22.7836C20.8591 27.1802 17.3509 30.7572 12.981 30.868L12.772 30.8707C8.37531 30.8706 4.79824 27.362 4.68763 22.9919L4.68491 22.7836ZM12.772 4.35638C10.971 4.35644 9.511 5.8169 9.511 7.61796C9.51109 9.41894 10.971 10.8789 12.772 10.879C14.5731 10.879 16.033 9.41897 16.0331 7.61796C16.0331 5.81687 14.5731 4.35638 12.772 4.35638Z" fill="white"/>
</svg>
